HIERARCHY
ROOT RootJoint
{
    OFFSET   0.000000   0.000000   0.000000
    CHANNELS 6 Xposition Yposition Zposition Xrotation Yrotation Zrotation
    JOINT pelvis_lowerback
    {
        OFFSET   0.000000   0.093605   0.000000
        CHANNELS 3 Xrotation Yrotation Zrotation
        JOINT lowerback_torso
        {
            OFFSET   0.000000   0.100000   0.000000
            CHANNELS 3 Xrotation Yrotation Zrotation
            JOINT torso_head
            {
                OFFSET   0.000000   0.282350   0.000000
                CHANNELS 3 Xrotation Yrotation Zrotation
                End Site
                {
                    OFFSET   0.000000   0.192650   0.000000
                }
            }
            JOINT rTorso_Clavicle
            {
                OFFSET  -0.001000   0.157500   0.000000
                CHANNELS 3 Xrotation Yrotation Zrotation
                JOINT rShoulder
                {
                    OFFSET  -0.117647   0.000000   0.000000
                    CHANNELS 3 Xrotation Yrotation Zrotation
                    JOINT rElbow
                    {
                        OFFSET  -0.245000   0.000000   0.000000
                        CHANNELS 3 Xrotation Yrotation Zrotation
                        JOINT rWrist
                        {
                            OFFSET  -0.240000   0.000000   0.000000
                            CHANNELS 3 Xrotation Yrotation Zrotation
                            End Site
                            {
                                OFFSET  -0.116353  -0.002500   0.000000
                            }
                        }
                    }
                }
            }
            JOINT lTorso_Clavicle
            {
                OFFSET   0.001000   0.157500   0.000000
                CHANNELS 3 Xrotation Yrotation Zrotation
                JOINT lShoulder
                {
                    OFFSET   0.117647   0.000000   0.000000
                    CHANNELS 3 Xrotation Yrotation Zrotation
                    JOINT lElbow
                    {
                        OFFSET   0.245000   0.000000   0.000000
                        CHANNELS 3 Xrotation Yrotation Zrotation
                        JOINT lWrist
                        {
                            OFFSET   0.240000   0.000000   0.000000
                            CHANNELS 3 Xrotation Yrotation Zrotation
                            End Site
                            {
                                OFFSET   0.116353  -0.002500   0.000000
                            }
                        }
                    }
                }
            }
        }
    }
    JOINT rHip
    {
        OFFSET  -0.100000  -0.051395   0.000000
        CHANNELS 3 Xrotation Yrotation Zrotation
        JOINT rKnee
        {
            OFFSET   0.000000  -0.410000   0.000000
            CHANNELS 3 Xrotation Yrotation Zrotation
            JOINT rAnkle
            {
                OFFSET   0.000000  -0.390000   0.000000
                CHANNELS 3 Xrotation Yrotation Zrotation
                JOINT rToeJoint
                {
                    OFFSET   0.000000  -0.050000   0.130000
                    CHANNELS 3 Xrotation Yrotation Zrotation
                    End Site
                    {
                        OFFSET  -0.010000   0.002000   0.060000
                    }
                }
            }
        }
    }
    JOINT lHip
    {
        OFFSET   0.100000  -0.051395   0.000000
        CHANNELS 3 Xrotation Yrotation Zrotation
        JOINT lKnee
        {
            OFFSET   0.000000  -0.410000   0.000000
            CHANNELS 3 Xrotation Yrotation Zrotation
            JOINT lAnkle
            {
                OFFSET   0.000000  -0.390000   0.000000
                CHANNELS 3 Xrotation Yrotation Zrotation
                JOINT lToeJoint
                {
                    OFFSET   0.000000  -0.050000   0.130000
                    CHANNELS 3 Xrotation Yrotation Zrotation
                    End Site
                    {
                        OFFSET   0.010000   0.002000   0.060000
                    }
                }
            }
        }
    }
}
MOTION
Frames: 11
Frame Time:   0.008333
 -2.345640   0.919833   4.034543  -0.026262  -1.943041   0.312996   2.125056   0.756192   0.375074   0.280368  -2.485498   1.031437   0.766851  -0.256921  -0.597310  -6.639337   9.939895 -12.206833 -31.049489   8.340844  31.109607 179.999025  66.313498 -179.999058   6.528894   8.493221 -17.114276  -7.986530 -10.934413  12.763933 -32.977016  -5.921935 -31.742790 179.997645 -67.747278 179.996920   4.336321  -9.176644  15.904973   2.509738  -4.500657  -2.921282   3.081944   0.000018   0.000088  -4.831254  -3.792754   2.864174  -0.864973   0.000021   0.000002   4.217688  -0.814113  -2.170483  -0.004769  -0.000001  -0.000001  -4.030864   2.113843   4.385387  -0.569011   0.000038   0.000029
 -2.345783   0.919853   4.034129  -0.042485  -2.022234   0.292789   2.154633   0.759698   0.400453   0.289434  -2.485395   1.024161   0.833615  -0.244466  -0.624074  -6.758742  10.276048 -12.424877 -31.448115   8.605354  31.153969 179.998895  66.482513 -179.998697   6.508395   8.501244 -17.076711  -8.099556 -11.198121  13.003363 -33.397842  -5.944848 -31.744890 179.996894 -67.983309 179.996011   4.285875  -9.192812  15.827874   2.505603  -4.479748  -2.892449   3.044723   0.000020   0.000089  -4.776550  -3.732401   2.847594  -0.865759   0.000017   0.000002   4.217858  -0.756639  -2.149060  -0.003815  -0.000000  -0.000001  -4.037580   2.174428   4.374904  -0.523092   0.000032   0.000039
 -2.345927   0.919868   4.033752  -0.057681  -2.099444   0.271190   2.179507   0.764373   0.422672   0.296285  -2.481622   1.018301   0.898579  -0.233729  -0.649446  -6.869815  10.588741 -12.626586 -31.821196   8.847539  31.196750 179.998793  66.650252 -179.998424   6.488941   8.507715 -17.058574  -8.210823 -11.436255  13.230068 -33.794644  -5.957207 -31.740735 179.996300 -68.214810 179.995280   4.238304  -9.206833  15.792131   2.503658  -4.458594  -2.861968   3.007046   0.000022   0.000090  -4.724238  -3.674356   2.831842  -0.866389   0.000013   0.000002   4.219501  -0.701106  -2.125873  -0.003052  -0.000000  -0.000001  -4.048932   2.233341   4.365727  -0.476380   0.000027   0.000046
 -2.346065   0.919880   4.033405  -0.072263  -2.170809   0.250299   2.200735   0.770313   0.441742   0.300859  -2.476000   1.012375   0.959543  -0.223856  -0.673328  -6.972088  10.878195 -12.813573 -32.168897   9.071125  31.237768 179.998741  66.807860 -179.998260   6.470419   8.513512 -17.047511  -8.315996 -11.653848  13.442650 -34.165692  -5.965553 -31.734275 179.995917 -68.432031 179.994811   4.193103  -9.219634  15.774628   2.503057  -4.439238  -2.832417   2.971358   0.000023   0.000089  -4.675579  -3.620489   2.817249  -0.866892   0.000011   0.000001   4.221888  -0.649143  -2.103295  -0.002442  -0.000000  -0.000001  -4.060850   2.288589   4.357235  -0.432806   0.000023   0.000050
 -2.346195   0.919889   4.033081  -0.086707  -2.235608   0.230363   2.218915   0.777230   0.458287   0.303915  -2.469327   1.006126   1.016473  -0.214657  -0.695779  -7.066179  11.146747 -12.987187 -32.492976   9.278350  31.277187 179.998731  66.954966 -179.998185   6.452718   8.518960 -17.039102  -8.414176 -11.854085  13.641040 -34.511923  -5.971574 -31.727180 179.995712 -68.634703 179.994567   4.149925  -9.231656  15.764936   2.503656  -4.422061  -2.804256   2.938262   0.000022   0.000085  -4.630577  -3.571127   2.803857  -0.867295   0.000009   0.000001   4.225015  -0.600707  -2.081835  -0.001953  -0.000000  -0.000001  -4.072602   2.340153   4.349333  -0.392360   0.000019   0.000052
 -2.346315   0.919897   4.032776  -0.101206  -2.293979   0.211300   2.234634   0.784861   0.472739   0.306000  -2.461980   0.999586   1.069533  -0.206063  -0.716831  -7.152755  11.396355 -13.148532 -32.795120   9.470782  31.315075 179.998752  67.092114 -179.998177   6.435781   8.524159 -17.031935  -8.505362 -12.039010  13.825788 -34.834723  -5.975955 -31.720103 179.995648 -68.823642 179.994501   4.108607  -9.243074  15.759069   2.505220  -4.407045  -2.777514   2.907827   0.000022   0.000080  -4.588886  -3.526129   2.791635  -0.867617   0.000007   0.000001   4.228743  -0.555539  -2.061560  -0.001563  -0.000000  -0.000001  -4.084038   2.388266   4.341986  -0.354445   0.000017   0.000053
 -2.346424   0.919902   4.032486  -0.115740  -2.346293   0.193010   2.248531   0.793029   0.485311   0.307607  -2.454154   0.992782   1.118831  -0.198028  -0.736501  -7.232490  11.628432 -13.298559 -33.076862   9.649599  31.351405 179.998797  67.219897 -179.998218   6.419564   8.529132 -17.025679  -8.589557 -12.209894  13.997610 -35.135208  -5.978340 -31.713251 179.995683 -69.001586 179.994559   4.103843  -9.376401  15.764592   2.507438  -4.394063  -2.752163   2.879900   0.000020   0.000073  -4.550080  -3.485233   2.780536  -0.867875   0.000005   0.000001   4.232798  -0.513383  -2.042465  -0.001250  -0.000000  -0.000000  -4.095075   2.433172   4.335169  -0.318543   0.000014   0.000053
 -2.346534   0.919888   4.032267  -0.139515  -2.401311   0.165849   2.246434   0.805313   0.505939   0.328887  -2.447690   0.984142   1.184738  -0.189825  -0.759859  -7.285343  11.819859 -13.421716 -33.352589   9.808714  31.374180 179.998724  67.408201 -179.998081   6.395615   8.536978 -17.010959  -8.661660 -12.338409  14.148033 -35.436716  -5.945479 -31.713786 179.995444 -69.201603 179.994316   4.049151  -9.366192  15.716213   2.524792  -4.367249  -2.717750   2.853247   0.000019   0.000065  -4.517260  -3.455344   2.769089  -0.868081   0.000004   0.000001   4.253110  -0.474914  -2.014289  -0.001000  -0.000000  -0.000000  -4.129771   2.473871   4.340176  -0.258162   0.000007   0.000056
 -2.346634   0.919908   4.032098  -0.167159  -2.463657   0.161094   2.242047   0.821944   0.505904   0.352552  -2.436979   0.966208   1.247294  -0.182248  -0.782507  -7.329408  11.985706 -13.525843 -33.602752   9.945859  31.396568 179.998687  67.591246 -179.998009   6.373294   8.544132 -16.999777  -8.727538 -12.440409  14.278570 -35.712456  -5.900710 -31.711669 179.995268 -69.394963 179.994158   3.998282  -9.359715  15.684686   2.545852  -4.336739  -2.708884   2.828803   0.000018   0.000059  -4.488144  -3.422984   2.760615  -0.868246   0.000003   0.000000   4.277428  -0.444276  -2.008671  -0.000800  -0.000000  -0.000000  -4.126834   2.506132   4.349108  -0.256902   0.000005   0.000045
 -2.346733   0.919925   4.031963  -0.194154  -2.523843   0.156100   2.235037   0.838447   0.506445   0.374333  -2.425448   0.946612   1.305747  -0.175231  -0.804320  -7.368899  12.133028 -13.620657 -33.833240  10.068251  31.416650 179.998685  67.764136 -179.997991   6.351891   8.550726 -16.993197  -8.788168 -12.526126  14.396047 -35.966726  -5.851834 -31.708307 179.995210 -69.577204 179.994134   3.950585  -9.356234  15.666127   2.567934  -4.307370  -2.699879   2.806372   0.000016   0.000053  -4.462595  -3.391708   2.752577  -0.868378   0.000003   0.000000   4.303222  -0.415094  -2.002606  -0.000640  -0.000000  -0.000000  -4.126194   2.537637   4.355897  -0.255742   0.000004   0.000036
 -2.346831   0.919939   4.031850  -0.220001  -2.580167   0.151122   2.226494   0.854240   0.505975   0.393887  -2.414127   0.927034   1.360208  -0.168706  -0.824740  -7.404964  12.266254 -13.707446 -34.046907  10.179479  31.435171 179.998710  67.925986 -179.998017   6.331448   8.556837 -16.989905  -8.844188 -12.601073  14.502994 -36.202320  -5.802570 -31.704399 179.995253 -69.747808 179.994226   3.905685  -9.355202  15.654103   2.590027  -4.279952  -2.690903   2.785947   0.000014   0.000048  -4.440076  -3.362392   2.744896  -0.868483   0.000002   0.000000   4.329069  -0.387815  -1.996366  -0.000512  -0.000000  -0.000000  -4.127044   2.567143   4.362031  -0.254423   0.000003   0.000029
